<?xml version="1.0" encoding="iso-8859-1"?>
<!-- Generator: Adobe Illustrator 19.0.0, SVG Export Plug-In . SVG Version: 6.00 Build 0)  -->
<svg version="1.1" id="Capa_1" xmlns="http://www.w3.org/2000/svg" xmlns:xlink="http://www.w3.org/1999/xlink" x="0px" y="0px"
	 viewBox="0 0 512 512" style="enable-background:new 0 0 512 512;" xml:space="preserve">
<path style="fill:#FF9F00;" d="M415,414.854c-66.299,66.601-168.3,84.6-253.799,45L460,161.055
	C499.6,246.555,481.601,348.555,415,414.854z"/>
<path style="fill:#FF7816;" d="M415,414.854c-66.299,66.601-168.3,84.6-253.799,45L310.6,310.455L415,414.854z"/>
<path style="fill:#FFD400;" d="M479.235,143.854c-32.1,56.7-85.835,123.1-149.135,186.1c-63,63.3-129,115.8-185.7,147.9
	c-11.78,6.7-26.913,15.363-42.093,21.523c-32.39,13.14-68.17,20.04-88.8-0.59c-21.11-21.11-15-57.22,1.38-94.8
	c9.93-22.77,24.313-47.203,38.013-68.033l141.6-141.6l141.6-141.6c16.27-10.7,35.285-21.8,53.135-30.7
	c42.73-21.3,85.89-32.31,109.8-8.4C521.535,36.155,514.635,81.155,479.235,143.854z"/>
<path style="fill:#FDBF00;" d="M330.1,329.954c-63,63.3-129,115.8-185.7,147.9c-11.78,6.7-26.913,15.363-42.093,21.523
	c-32.39,13.14-68.17,20.04-88.8-0.59c-21.11-21.11-15-57.22,1.38-94.8c9.93-22.77,24.313-47.203,38.013-68.033l141.6-141.6
	L330.1,329.954z"/>
<path style="fill:#FF9F00;" d="M415,96.855c-87.599-87.9-230.4-87.9-317.999,0c-87.9,87.599-87.9,230.4,0,317.999l11.1,11.1l9.6-5.4
	c52.8-28.799,113.399-75.899,170.099-132.9c57.001-56.7,104.101-117.299,132.9-170.099l5.4-9.6L415,96.855z"/>
<path style="fill:#FF7816;" d="M287.8,287.654c-56.7,57.001-117.299,104.101-170.099,132.9l-9.6,5.4l-11.1-11.1
	c-87.9-87.599-87.9-230.4,0-317.999L287.8,287.654z"/>
<path style="fill:#FDBF00;" d="M245.501,126.855c-17.1-17.1-46.8-17.1-63.6,0c-12.001,11.7-15.901,28.5-11.4,43.5
	c1.5,7.5,5.4,14.399,11.1,20.099c5.999,5.7,12.9,9.6,20.4,11.4c15,4.2,31.8,0.3,43.5-11.4
	C262.899,172.754,262.899,144.255,245.501,126.855z"/>
<rect x="121" y="240.851" style="fill:#FF9F00;" width="30" height="30"/>
<rect x="301" y="120.851" style="fill:#FDBF00;" width="30" height="30"/>
<path style="fill:#FF9F00;" d="M181.601,190.455c-5.7-5.7-9.6-12.599-11.1-20.099l31.5,31.5
	C194.5,200.055,187.599,196.155,181.601,190.455z"/>
<g>
</g>
<g>
</g>
<g>
</g>
<g>
</g>
<g>
</g>
<g>
</g>
<g>
</g>
<g>
</g>
<g>
</g>
<g>
</g>
<g>
</g>
<g>
</g>
<g>
</g>
<g>
</g>
<g>
</g>
</svg>
